<svg xmlns="http://www.w3.org/2000/svg" viewBox="0 0 14 14" height="48" width="48"><g><path d="M13.5,5.5A.5.5,0,0,0,13,5H12V4a1,1,0,0,0-1-1H1.5a1,1,0,0,0-1,1v6a1,1,0,0,0,1,1H11a1,1,0,0,0,1-1V9h1a.5.5,0,0,0,.5-.5Z" fill="none" stroke="#000000" stroke-linecap="round" stroke-linejoin="round"></path><line x1="3.25" y1="5.5" x2="3.25" y2="8.5" fill="none" stroke="#000000" stroke-linecap="round" stroke-linejoin="round"></line><line x1="6.25" y1="5.5" x2="6.25" y2="8.5" fill="none" stroke="#000000" stroke-linecap="round" stroke-linejoin="round"></line></g></svg>